<?xml version="1.0" encoding="utf-8"?>
<!-- Generator: Fusion 360, Shaper Origin Export Add-In, Version 1.5.0  -->
<svg enable-background="new 0 0 13.3726783 2.690255" height="2.690255cm" shaper:fusionaddin="version:1.5.0" version="1.1" viewBox="0 0 13.3726783 2.690255" width="13.3726783cm" x="0cm" xml:space="preserve" xmlns="http://www.w3.org/2000/svg" xmlns:shaper="http://www.shapertools.com/namespaces/shaper" xmlns:xlink="http://www.w3.org/1999/xlink" y="0cm"><path d="M12.8726783,0 L12.8726783,1.4000003 10.1726783,1.4000003 9.0257852,2.690255 8.0629329,2.690255 6.3726782,1.0000003 1.3787186,1.0000003 1.562331,2.0413179 A0.05,0.05 350 0,1 1.5130906,2.1000003 L1.3820419,2.1000003 A1,1 90 0,1 0.817358,1.9253075 L-0.282342,1.1728812 A0.5,0.5 124.3803447 0,1 -0.5,0.7602276 L-0.5,0.5 A0.5,0.5 180 0,1 -0,-0 L12.8726783,0z" fill="rgb(0,0,0)" shaper:cutDepth="0" shaper:pathType="exterior" transform="matrix(1,0,0,-1,0.5,2.690255)" vector-effect="non-scaling-stroke" /><path d="M7.9641207,0.6252908 a0.1643326,0.1643326 0 1,1 0.3286653,0 a0.1643326,0.1643326 0 1,1 -0.3286653,0z" fill="rgb(255,255,255)" shaper:cutDepth="0" shaper:pathType="interior" stroke="rgb(0,0,0)" transform="matrix(1,0,0,-1,0.5,2.690255)" vector-effect="non-scaling-stroke" /><path d="M-0.0987709,0.4968384 a0.1622059,0.1622059 0 1,1 0.3244118,0 a0.1622059,0.1622059 0 1,1 -0.3244118,0z" fill="rgb(255,255,255)" shaper:cutDepth="0" shaper:pathType="interior" stroke="rgb(0,0,0)" transform="matrix(1,0,0,-1,0.5,2.690255)" vector-effect="non-scaling-stroke" /><path d="M2.0671927,0.3977093 a0.1065875,0.1065875 0 1,1 0.213175,0 a0.1065875,0.1065875 0 1,1 -0.213175,0z" fill="rgb(255,255,255)" shaper:cutDepth="0" shaper:pathType="interior" stroke="rgb(0,0,0)" transform="matrix(1,0,0,-1,0.5,2.690255)" vector-effect="non-scaling-stroke" /><path d="M3.0657121,0.3977093 a0.1080682,0.1080682 0 1,1 0.2161363,0 a0.1080682,0.1080682 0 1,1 -0.2161363,0z" fill="rgb(255,255,255)" shaper:cutDepth="0" shaper:pathType="interior" stroke="rgb(0,0,0)" transform="matrix(1,0,0,-1,0.5,2.690255)" vector-effect="non-scaling-stroke" /></svg>