<?xml version="1.0" encoding="utf-8"?>
<!-- Generator: Fusion 360, Shaper Origin Export Add-In, Version 1.5.0  -->
<svg enable-background="new 0 0 11.9064154 3.8709546" height="3.8709546cm" shaper:fusionaddin="version:1.5.0" version="1.1" viewBox="0 0 11.9064154 3.8709546" width="11.9064154cm" x="0cm" xml:space="preserve" xmlns="http://www.w3.org/2000/svg" xmlns:shaper="http://www.shapertools.com/namespaces/shaper" xmlns:xlink="http://www.w3.org/1999/xlink" y="0cm"><path d="M3.0542567,2.7808326 A0.6,0.6 111.3894995 0,1 2.7361753,2.4899891 A0.3983476,0.3983476 333.4881106 0,0 2.2388522,2.2951954 A0.6,0.6 69.2908885 0,1 1.8078543,2.2926363 L0.7670474,1.8849686 -3.2917901,1.4091912 A0.6,0.6 96.685707 0,1 -3.2341379,0.2133954 L0,-0 7.2571818,-0 8.0844791,0.5617642 5.8374215,3.8709546 3.0542567,2.7808326z" fill="rgb(0,0,0)" shaper:cutDepth="0" shaper:pathType="exterior" transform="matrix(1,0,0,-1,3.8219363,3.8709546)" vector-effect="non-scaling-stroke" /><path d="M0.211264,0.3075668 a0.1542272,0.1542272 0 1,1 0.3084545,0 a0.1542272,0.1542272 0 1,1 -0.3084545,0z" fill="rgb(255,255,255)" shaper:cutDepth="0" shaper:pathType="interior" stroke="rgb(0,0,0)" transform="matrix(1,0,0,-1,3.8219363,3.8709546)" vector-effect="non-scaling-stroke" /><path d="M-3.3769363,0.8132714 a0.155,0.155 0 1,1 0.31,0 a0.155,0.155 0 1,1 -0.31,0z" fill="rgb(255,255,255)" shaper:cutDepth="0" shaper:pathType="interior" stroke="rgb(0,0,0)" transform="matrix(1,0,0,-1,3.8219363,3.8709546)" vector-effect="non-scaling-stroke" /><path d="M0.7062478,1.2924095 a0.155,0.155 0 1,1 0.31,0 a0.155,0.155 0 1,1 -0.31,0z" fill="rgb(255,255,255)" shaper:cutDepth="0" shaper:pathType="interior" stroke="rgb(0,0,0)" transform="matrix(1,0,0,-1,3.8219363,3.8709546)" vector-effect="non-scaling-stroke" /><path d="M6.5404176,0.8272974 a0.155,0.155 0 1,1 0.31,0 a0.155,0.155 0 1,1 -0.31,0z" fill="rgb(255,255,255)" shaper:cutDepth="0" shaper:pathType="interior" stroke="rgb(0,0,0)" transform="matrix(1,0,0,-1,3.8219363,3.8709546)" vector-effect="non-scaling-stroke" /><path d="M5.4168891,2.4818922 a0.155,0.155 0 1,1 0.31,0 a0.155,0.155 0 1,1 -0.31,0z" fill="rgb(255,255,255)" shaper:cutDepth="0" shaper:pathType="interior" stroke="rgb(0,0,0)" transform="matrix(1,0,0,-1,3.8219363,3.8709546)" vector-effect="non-scaling-stroke" /></svg>