<?xml version="1.0" encoding="utf-8"?>
<!-- Generator: Fusion 360, Shaper Origin Export Add-In, Version 1.5.0  -->
<svg enable-background="new 0 0 6.5000011 3.6608038" height="3.6608038cm" shaper:fusionaddin="version:1.5.0" version="1.1" viewBox="0 0 6.5000011 3.6608038" width="6.5000011cm" x="0cm" xml:space="preserve" xmlns="http://www.w3.org/2000/svg" xmlns:shaper="http://www.shapertools.com/namespaces/shaper" xmlns:xlink="http://www.w3.org/1999/xlink" y="0cm"><path d="M6.0000011,0.25 L6.0000011,2.0108038 6.0000011,2.5608038 6.0000011,3.1608038 A0.5,0.5 0 0,1 5.5000011,3.6608038 L0,3.6608038 A0.5,0.5 90 0,1 -0.5,3.1608038 L-0.5,0.5 A0.5,0.5 180 0,1 0,0 L5.7500011,0 A0.25,0.25 270 0,1 6.0000011,0.25z" fill="rgb(0,0,0)" shaper:cutDepth="0" shaper:pathType="exterior" transform="matrix(1,0,0,-1,0.5,3.6608038)" vector-effect="non-scaling-stroke" /><path d="M3.7899973,0.8608038 a0.2100027,0.2100027 0 1,1 0.4200054,0 a0.2100027,0.2100027 0 1,1 -0.4200054,0z" fill="rgb(255,255,255)" shaper:cutDepth="0" shaper:pathType="interior" stroke="rgb(0,0,0)" transform="matrix(1,0,0,-1,0.5,3.6608038)" vector-effect="non-scaling-stroke" /><path d="M0.2897898,2.2608038 a0.2102102,0.2102102 0 1,1 0.4204204,0 a0.2102102,0.2102102 0 1,1 -0.4204204,0z" fill="rgb(255,255,255)" shaper:cutDepth="0" shaper:pathType="interior" stroke="rgb(0,0,0)" transform="matrix(1,0,0,-1,0.5,3.6608038)" vector-effect="non-scaling-stroke" /><path d="M1.7898254,0.8608038 a0.2101746,0.2101746 0 1,1 0.4203492,0 a0.2101746,0.2101746 0 1,1 -0.4203492,0z" fill="rgb(255,255,255)" shaper:cutDepth="0" shaper:pathType="interior" stroke="rgb(0,0,0)" transform="matrix(1,0,0,-1,0.5,3.6608038)" vector-effect="non-scaling-stroke" /><path d="M0.2899971,1.0608038 a0.2100028,0.2100028 0 1,1 0.4200057,0 a0.2100028,0.2100028 0 1,1 -0.4200057,0z" fill="rgb(255,255,255)" shaper:cutDepth="0" shaper:pathType="interior" stroke="rgb(0,0,0)" transform="matrix(1,0,0,-1,0.5,3.6608038)" vector-effect="non-scaling-stroke" /></svg>