<?xml version="1.0" encoding="utf-8"?>
<!-- Generator: Fusion 360, Shaper Origin Export Add-In, Version 1.5.0  -->
<svg enable-background="new 0 0 8.9407462 1.667662" height="1.667662cm" shaper:fusionaddin="version:1.5.0" version="1.1" viewBox="0 0 8.9407462 1.667662" width="8.9407462cm" x="0cm" xml:space="preserve" xmlns="http://www.w3.org/2000/svg" xmlns:shaper="http://www.shapertools.com/namespaces/shaper" xmlns:xlink="http://www.w3.org/1999/xlink" y="0cm"><path d="M-0.799361,1.6676619 A0.5,0.5 89.9810859 0,1 -1.2915132,1.0785068 A1.3125477,1.3125477 190.271361 0,1 -0,-0 L5.7127843,-0 A3.6871213,3.6871213 275.1516999 0,1 7.3026377,0.525024 A0.6,0.6 295.8295811 0,1 7.0442563,1.6650727 L6.3219925,1.6653111 6.4466109,1.6652069 A0.7048471,0.7048471 96.7592841 0,1 5.8752925,1.2274232 L5.8104053,1.0654856 A0.2559042,0.2559042 359.8031954 0,0 5.2985994,1.0656541 L5.2494625,1.1860271 A0.7855054,0.7855054 22.2055647 0,1 4.6394605,1.6658665 L-0.799361,1.6676619z" fill="rgb(0,0,0)" shaper:cutDepth="0" shaper:pathType="exterior" transform="matrix(1,0,0,-1,1.299526,1.667662)" vector-effect="non-scaling-stroke" /><path d="M6.8862202,1.0650803 a0.155,0.155 0 1,1 0.31,0 a0.155,0.155 0 1,1 -0.31,0z" fill="rgb(255,255,255)" shaper:cutDepth="0" shaper:pathType="interior" stroke="rgb(0,0,0)" transform="matrix(1,0,0,-1,1.299526,1.667662)" vector-effect="non-scaling-stroke" /><path d="M-0.9147794,1.0676488 a0.155,0.155 0 1,1 0.31,0 a0.155,0.155 0 1,1 -0.31,0z" fill="rgb(255,255,255)" shaper:cutDepth="0" shaper:pathType="interior" stroke="rgb(0,0,0)" transform="matrix(1,0,0,-1,1.299526,1.667662)" vector-effect="non-scaling-stroke" /></svg>