<?xml version="1.0" encoding="utf-8"?>
<!-- Generator: Fusion 360, Shaper Origin Export Add-In, Version 1.5.0  -->
<svg enable-background="new 0 0 6.5527935 1.2" height="1.2cm" shaper:fusionaddin="version:1.5.0" version="1.1" viewBox="0 0 6.5527935 1.2" width="6.5527935cm" x="0cm" xml:space="preserve" xmlns="http://www.w3.org/2000/svg" xmlns:shaper="http://www.shapertools.com/namespaces/shaper" xmlns:xlink="http://www.w3.org/1999/xlink" y="0cm"><path d="M5.4525211,-0 A0.6,0.6 279.5676897 0,1 5.9412403,0.4744774 L5.9496158,0.5299844 A0.6,0.6 354.1005763 0,1 5.2086953,1.1740934 L0.0078348,1.1999684 0.0078622,1.1999485 A0.6,0.6 89.2491913 1,1 -0,-0 L5.4525211,-0z" fill="rgb(0,0,0)" shaper:cutDepth="0" shaper:pathType="exterior" transform="matrix(1,0,0,-1,0.6,1.2)" vector-effect="non-scaling-stroke" /><path d="M1.8949644,0.5786295 a0.153695,0.153695 0 1,1 0.30739,0 a0.153695,0.153695 0 1,1 -0.30739,0z" fill="rgb(255,255,255)" shaper:cutDepth="0" shaper:pathType="interior" stroke="rgb(0,0,0)" transform="matrix(1,0,0,-1,0.6,1.2)" vector-effect="non-scaling-stroke" /><path d="M5.1977935,0.591654 a0.155,0.155 0 1,1 0.31,0 a0.155,0.155 0 1,1 -0.31,0z" fill="rgb(255,255,255)" shaper:cutDepth="0" shaper:pathType="interior" stroke="rgb(0,0,0)" transform="matrix(1,0,0,-1,0.6,1.2)" vector-effect="non-scaling-stroke" /><path d="M-0.155,0.6 a0.155,0.155 0 1,1 0.31,0 a0.155,0.155 0 1,1 -0.31,0z" fill="rgb(255,255,255)" shaper:cutDepth="0" shaper:pathType="interior" stroke="rgb(0,0,0)" transform="matrix(1,0,0,-1,0.6,1.2)" vector-effect="non-scaling-stroke" /></svg>