<?xml version="1.0" encoding="utf-8"?>
<!-- Generator: Fusion 360, Shaper Origin Export Add-In, Version 1.5.0  -->
<svg enable-background="new 0 0 3.5517114 2.3574741" height="2.3574741cm" shaper:fusionaddin="version:1.5.0" version="1.1" viewBox="0 0 3.5517114 2.3574741" width="3.5517114cm" x="0cm" xml:space="preserve" xmlns="http://www.w3.org/2000/svg" xmlns:shaper="http://www.shapertools.com/namespaces/shaper" xmlns:xlink="http://www.w3.org/1999/xlink" y="0cm"><path d="M2.3761852,2.3428494 L2.3761852,2.3574741 1.1369048,2.33935 A0.6,0.6 90.010196 0,1 0.6973333,2.1476183 L-0.2435617,1.1343361 A0.6,0.6 116.9180455 0,1 -0.5718433,0.6096787 L-0.5420843,0.412456 A0.6,0.6 198.148356 0,1 -0,0 L2.9798681,0 2.9798681,2.3516781 2.3761852,2.3428494z" fill="rgb(0,0,0)" shaper:cutDepth="0" shaper:pathType="exterior" transform="matrix(1,0,0,-1,0.5718433,2.3574741)" vector-effect="non-scaling-stroke" /><path d="M2.4197169,0.9778032 a0.155,0.155 0 1,1 0.31,0 a0.155,0.155 0 1,1 -0.31,0z" fill="rgb(255,255,255)" shaper:cutDepth="0" shaper:pathType="interior" stroke="rgb(0,0,0)" transform="matrix(1,0,0,-1,0.5718433,2.3574741)" vector-effect="non-scaling-stroke" /><path d="M2.4196185,0.3278032 a0.155,0.155 0 1,1 0.31,0 a0.155,0.155 0 1,1 -0.31,0z" fill="rgb(255,255,255)" shaper:cutDepth="0" shaper:pathType="interior" stroke="rgb(0,0,0)" transform="matrix(1,0,0,-1,0.5718433,2.3574741)" vector-effect="non-scaling-stroke" /><path d="M0.5370188,1.7364047 A0.6,0.6 180.2812574 0,0 0.5370177,1.7420807 L0.5370188,1.7364047z" fill="rgb(255,255,255)" shaper:cutDepth="0" shaper:pathType="interior" stroke="rgb(0,0,0)" transform="matrix(1,0,0,-1,0.5718433,2.3574741)" vector-effect="non-scaling-stroke" /><path d="M0.9820115,1.73935 a0.155,0.155 0 1,1 0.31,0 a0.155,0.155 0 1,1 -0.31,0z" fill="rgb(255,255,255)" shaper:cutDepth="0" shaper:pathType="interior" stroke="rgb(0,0,0)" transform="matrix(1,0,0,-1,0.5718433,2.3574741)" vector-effect="non-scaling-stroke" /><path d="M-0.1269323,0.5993431 a0.155,0.155 0 1,1 0.31,0 a0.155,0.155 0 1,1 -0.31,0z" fill="rgb(255,255,255)" shaper:cutDepth="0" shaper:pathType="interior" stroke="rgb(0,0,0)" transform="matrix(1,0,0,-1,0.5718433,2.3574741)" vector-effect="non-scaling-stroke" /></svg>