<?xml version="1.0" encoding="utf-8"?>
<!-- Generator: Fusion 360, Shaper Origin Export Add-In, Version 1.5.0  -->
<svg enable-background="new 0 0 33 33" height="33cm" shaper:fusionaddin="version:1.5.0" version="1.1" viewBox="0 0 33 33" width="33cm" x="0cm" xml:space="preserve" xmlns="http://www.w3.org/2000/svg" xmlns:shaper="http://www.shapertools.com/namespaces/shaper" xmlns:xlink="http://www.w3.org/1999/xlink" y="0cm"><path d="M0,0 L33,0 33,33 0,33 0,0z" fill="rgb(0,0,0)" shaper:cutDepth="0" shaper:pathType="exterior" transform="matrix(1,0,0,-1,-0,33)" vector-effect="non-scaling-stroke" /><path d="M30.1110389,18.4999912 L30.6110389,18.4999912 30.6110389,17.9999912 30.1110389,17.9999912 30.1110389,18.4999912z" fill="rgb(255,255,255)" shaper:cutDepth="0" shaper:pathType="interior" stroke="rgb(0,0,0)" transform="matrix(1,0,0,-1,-0,33)" vector-effect="non-scaling-stroke" /><path d="M28.115832,18.5010512 L28.615832,18.5010512 28.615832,18.0010512 28.115832,18.0010512 28.115832,18.5010512z" fill="rgb(255,255,255)" shaper:cutDepth="0" shaper:pathType="interior" stroke="rgb(0,0,0)" transform="matrix(1,0,0,-1,-0,33)" vector-effect="non-scaling-stroke" /><path d="M2.252567,3.4256241 L2.8085601,3.4256241 2.8085601,2.866493 2.252567,2.866493 2.252567,3.4256241z" fill="rgb(255,255,255)" shaper:cutDepth="0" shaper:pathType="interior" stroke="rgb(0,0,0)" transform="matrix(1,0,0,-1,-0,33)" vector-effect="non-scaling-stroke" /><path d="M2.8085601,1.1309918 L2.8085601,0.5752052 2.2525346,0.5752052 2.2525346,1.1309918 2.8085601,1.1309918z" fill="rgb(255,255,255)" shaper:cutDepth="0" shaper:pathType="interior" stroke="rgb(0,0,0)" transform="matrix(1,0,0,-1,-0,33)" vector-effect="non-scaling-stroke" /><path d="M30.6110379,14.9999935 L30.6110379,14.4999935 30.1110379,14.4999935 30.1110379,14.9999935 30.6110379,14.9999935z" fill="rgb(255,255,255)" shaper:cutDepth="0" shaper:pathType="interior" stroke="rgb(0,0,0)" transform="matrix(1,0,0,-1,-0,33)" vector-effect="non-scaling-stroke" /><path d="M28.611038,14.9999935 L28.611038,14.4999935 28.111038,14.4999935 28.111038,14.9999935 28.611038,14.9999935z" fill="rgb(255,255,255)" shaper:cutDepth="0" shaper:pathType="interior" stroke="rgb(0,0,0)" transform="matrix(1,0,0,-1,-0,33)" vector-effect="non-scaling-stroke" /><path d="M2.8085601,30.0491901 L2.8085601,29.4948137 2.2525346,29.4948137 2.2525346,30.0491901 2.8085601,30.0491901z" fill="rgb(255,255,255)" shaper:cutDepth="0" shaper:pathType="interior" stroke="rgb(0,0,0)" transform="matrix(1,0,0,-1,-0,33)" vector-effect="non-scaling-stroke" /><path d="M2.2525346,32.347453 L2.8085601,32.347453 2.8085601,31.7824558 2.2525346,31.7824558 2.2525346,32.347453z" fill="rgb(255,255,255)" shaper:cutDepth="0" shaper:pathType="interior" stroke="rgb(0,0,0)" transform="matrix(1,0,0,-1,-0,33)" vector-effect="non-scaling-stroke" /></svg>