<svg width="36" height="36" viewBox="0 0 36 36" fill="none" xmlns="http://www.w3.org/2000/svg">
<path d="M35.9998 2.70634C35.9975 1.82126 35.0217 1.27988 34.2694 1.74898C25.7244 7.07817 16.7412 15.3564 12.6059 15.4658C9.12113 12.3378 6.32188 11.1664 4.0556 11.8853C2.09921 12.5059 0.743682 14.5031 0.0267019 17.8213C-0.17422 18.7515 0.79736 19.5002 1.64546 19.0691C3.4778 18.1378 4.80214 18.1079 6.06516 18.9714C8.49942 20.9163 8.1352 27.1551 11.3468 28.8231C13.4514 29.9163 16.0539 30.0016 19.1001 29.0804C19.5924 31.5914 22.0708 33.4762 24.2298 34.8449C24.5063 35.0202 24.8538 35.0714 25.1802 34.967C30.3064 33.3277 34.3877 29.0221 31.9328 24.4071C31.6838 23.9389 31.1433 23.7064 30.6318 23.848C28.587 24.4141 26.4256 24.2467 24.0277 23.336L23.0025 22.6605C33.4458 21.6521 36.0259 13.2419 35.9998 2.70634Z" fill="white"/>
<path d="M13.2666 13.044C15.3245 12.3736 18.4661 10.1585 20.2524 8.88079C19.6688 5.89745 18.1298 3.37409 15.9628 1.29457C15.3386 0.695276 14.2976 0.992308 14.0832 1.83036L11.5496 11.7283C12.1097 12.1175 12.6818 12.5558 13.2666 13.044Z" fill="white"/>
</svg>
