<svg width="23" height="23" viewBox="0 0 23 23" fill="none" xmlns="http://www.w3.org/2000/svg">
<path d="M6.15042 0H0.832868C0.480501 0 0.1922 0.288301 0.1922 0.640668V5.95821C0.1922 6.31058 0.480501 6.59888 0.832868 6.59888H6.15042C6.50279 6.59888 6.79109 6.31058 6.79109 5.95821V0.640668C6.79109 0.288301 6.50279 0 6.15042 0ZM5.57382 5.38161H1.47354V1.28134H5.57382V5.38161Z" fill="#0057FF"/>
<path d="M14.1588 0H8.84123C8.48886 0 8.20056 0.288301 8.20056 0.640668V5.95821C8.20056 6.31058 8.48886 6.59888 8.84123 6.59888H14.1588C14.5112 6.59888 14.7995 6.31058 14.7995 5.95821V0.640668C14.7995 0.288301 14.5112 0 14.1588 0ZM13.5822 5.38161H9.4819V1.28134H13.5822V5.38161Z" fill="#0057FF"/>
<path d="M6.15042 8.07251H0.832868C0.480501 8.07251 0.1922 8.36081 0.1922 8.71318V14.0307C0.1922 14.3831 0.480501 14.6714 0.832868 14.6714H6.15042C6.50279 14.6714 6.79109 14.3831 6.79109 14.0307V8.71318C6.79109 8.36081 6.50279 8.07251 6.15042 8.07251ZM5.57382 13.3901H1.47354V9.35385H5.57382V13.3901Z" fill="#0057FF"/>
<path d="M14.1588 8.07251H8.84123C8.48886 8.07251 8.20056 8.36081 8.20056 8.71318V14.0307C8.20056 14.3831 8.48886 14.6714 8.84123 14.6714H14.1588C14.5112 14.6714 14.7995 14.3831 14.7995 14.0307V8.71318C14.7995 8.36081 14.5112 8.07251 14.1588 8.07251ZM13.5822 13.3901H9.4819V9.35385H13.5822V13.3901Z" fill="#0057FF"/>
<path d="M22.1672 0H16.8496C16.4972 0 16.2089 0.288301 16.2089 0.640668V5.95821C16.2089 6.31058 16.4972 6.59888 16.8496 6.59888H22.1672C22.5195 6.59888 22.8078 6.31058 22.8078 5.95821V0.640668C22.8078 0.288301 22.5195 0 22.1672 0ZM21.5906 5.38161H17.4903V1.28134H21.5906V5.38161Z" fill="#0057FF"/>
<path d="M22.1672 8.07251H16.8496C16.4972 8.07251 16.2089 8.36081 16.2089 8.71318V14.0307C16.2089 14.3831 16.4972 14.6714 16.8496 14.6714H22.1672C22.5195 14.6714 22.8078 14.3831 22.8078 14.0307V8.71318C22.8078 8.36081 22.5195 8.07251 22.1672 8.07251ZM21.5906 13.3901H17.4903V9.35385H21.5906V13.3901Z" fill="#0057FF"/>
<path d="M6.15042 16.4011H0.832868C0.480501 16.4011 0.1922 16.6894 0.1922 17.0418V22.3593C0.1922 22.7117 0.480501 23 0.832868 23H6.15042C6.50279 23 6.79109 22.7117 6.79109 22.3593V17.0418C6.79109 16.6894 6.50279 16.4011 6.15042 16.4011ZM5.57382 21.7827H1.47354V17.6825H5.57382V21.7827Z" fill="#0057FF"/>
<path d="M14.1588 16.4011H8.84123C8.48886 16.4011 8.20056 16.6894 8.20056 17.0418V22.3593C8.20056 22.7117 8.48886 23 8.84123 23H14.1588C14.5112 23 14.7995 22.7117 14.7995 22.3593V17.0418C14.7995 16.6894 14.5112 16.4011 14.1588 16.4011ZM13.5822 21.7827H9.4819V17.6825H13.5822V21.7827Z" fill="#0057FF"/>
<path d="M22.1672 16.4011H16.8496C16.4972 16.4011 16.2089 16.6894 16.2089 17.0418V22.3593C16.2089 22.7117 16.4972 23 16.8496 23H22.1672C22.5195 23 22.8078 22.7117 22.8078 22.3593V17.0418C22.8078 16.6894 22.5195 16.4011 22.1672 16.4011ZM21.5906 21.7827H17.4903V17.6825H21.5906V21.7827Z" fill="#0057FF"/>
</svg>
