<svg width="24" height="24" viewBox="0 0 24 24" fill="none" xmlns="http://www.w3.org/2000/svg">
<path d="M23 11.0208H1C0.447998 11.0208 0 11.4688 0 12.0208C0 12.5728 0.447998 13.0208 1 13.0208H23C23.552 13.0208 24 12.5728 24 12.0208C24 11.4688 23.552 11.0208 23 11.0208Z" fill="black"/>
<path d="M23 18.6875H1C0.447998 18.6875 0 19.1355 0 19.6875C0 20.2395 0.447998 20.6875 1 20.6875H23C23.552 20.6875 24 20.2395 24 19.6875C24 19.1355 23.552 18.6875 23 18.6875Z" fill="black"/>
<path d="M23 3.35425H1C0.447998 3.35425 0 3.80225 0 4.35425C0 4.90625 0.447998 5.35425 1 5.35425H23C23.552 5.35425 24 4.90625 24 4.35425C24 3.80225 23.552 3.35425 23 3.35425Z" fill="black"/>
</svg>
