<svg width="23" height="31" viewBox="0 0 23 31" fill="none" xmlns="http://www.w3.org/2000/svg">
          <path d="M20.125 11.625H19.1667V7.75C19.1667 3.47587 15.7282 0 11.5 0C7.27183 0 3.83333 3.47587 3.83333 7.75V11.625H2.875C1.29056 11.625 0 12.9283 0 14.5312V28.0938C0 29.6967 1.29056 31 2.875 31H20.125C21.7094 31 23 29.6967 23 28.0938V14.5312C23 12.9283 21.7094 11.625 20.125 11.625ZM6.38889 7.75C6.38889 4.90058 8.68122 2.58333 11.5 2.58333C14.3188 2.58333 16.6111 4.90058 16.6111 7.75V11.625H6.38889V7.75ZM12.7778 21.5992V24.5417C12.7778 25.2547 12.2066 25.8333 11.5 25.8333C10.7934 25.8333 10.2222 25.2547 10.2222 24.5417V21.5992C9.46194 21.151 8.94444 20.327 8.94444 19.375C8.94444 17.9503 10.0906 16.7917 11.5 16.7917C12.9094 16.7917 14.0556 17.9503 14.0556 19.375C14.0556 20.327 13.5381 21.151 12.7778 21.5992Z" fill="#0057FF" />
        </svg>
