<svg width="32" height="28" viewBox="0 0 32 28" fill="none" xmlns="http://www.w3.org/2000/svg">
<path d="M31.1562 25.2188V21.1562H29.2552V17.0938H28.464L28.2559 10.8503H31.1562V5.18L16 0L0.84375 5.18V10.8503H3.74406L3.536 17.0938H2.74481V21.1562H0.84375V25.2188H0V27.0938H32V25.2188H31.1562ZM9.07862 17.0938L8.8705 10.8503H13.4368L13.2286 17.0938H12.4375V21.1562H9.86981V17.0938H9.07862ZM16.6872 10.8503L16.8953 17.0938H15.1047L15.3128 10.8503H16.6872ZM14.3125 18.9688H17.6875V21.1562H14.3125V18.9688ZM18.7714 17.0938L18.5632 10.8503H23.1295L22.9214 17.0938H22.1303V21.1562H19.5625V17.0938H18.7714ZM24.0052 18.9688H27.3802V21.1562H24.0052V18.9688ZM26.588 17.0938H24.7974L25.0055 10.8503H26.3799L26.588 17.0938ZM24.5777 4.91313H7.42225L16 1.9815L24.5777 4.91313ZM2.71875 6.78813H29.2812V8.97531H2.71875V6.78813ZM6.9945 10.8503L7.20262 17.0938H5.412L5.62012 10.8503H6.9945ZM4.61981 18.9688H7.99481V21.1562H4.61981V18.9688ZM2.71875 23.0312H2.74481H29.2553H29.2813V25.2188H2.71881V23.0312H2.71875Z" fill="#0057FF"/>
</svg>
