<svg width="30" height="32" viewBox="0 0 30 32" fill="none" xmlns="http://www.w3.org/2000/svg">
<path d="M14.91 18.0243C5.29519 18.0243 0 22.5728 0 30.8321C0 31.4772 0.522812 32 1.16787 32H28.6521C29.2971 32 29.8199 31.4772 29.8199 30.8321C29.82 22.5732 24.5248 18.0243 14.91 18.0243ZM2.37825 29.6643C2.83763 23.4889 7.04781 20.3601 14.91 20.3601C22.7722 20.3601 26.9824 23.4889 27.4422 29.6643H2.37825Z" fill="#888888"/>
<path d="M14.91 0C10.4935 0 7.16309 3.39737 7.16309 7.90231C7.16309 12.5392 10.6383 16.3111 14.91 16.3111C19.1817 16.3111 22.657 12.5392 22.657 7.90269C22.657 3.39738 19.3266 0 14.91 0ZM14.91 13.9757C11.9261 13.9757 9.49884 11.2514 9.49884 7.90269C9.49884 4.677 11.7747 2.33575 14.91 2.33575C17.9952 2.33575 20.3212 4.72875 20.3212 7.90269C20.3212 11.2514 17.894 13.9757 14.91 13.9757Z" fill="#888888"/>
</svg>
