<svg width="28" height="29" viewBox="0 0 28 29" fill="none" xmlns="http://www.w3.org/2000/svg">
          <g clip-path="url(#clip0)">
            <path d="M27.9131 8.00527C27.7105 7.59993 27.217 7.43729 26.8124 7.63837L23.5312 9.279C23.1259 9.48167 22.9617 9.97435 23.1643 10.3797C23.3667 10.7834 23.857 10.9493 24.265 10.7466L27.5462 9.10597C27.9516 8.9033 28.1158 8.41062 27.9131 8.00527Z" fill="white" />
            <path d="M27.5462 17.4821L24.265 15.8415C23.8597 15.6396 23.3678 15.8022 23.1643 16.2084C22.9617 16.6137 23.1259 17.1064 23.5312 17.3091L26.8124 18.9497C27.2217 19.153 27.7114 18.9852 27.9131 18.5828C28.1158 18.1775 27.9516 17.6848 27.5462 17.4821Z" fill="white" />
            <path d="M18.867 14.1698H6.56244V9.95887C6.56244 7.69738 8.40252 5.85737 10.664 5.85737C12.9254 5.85737 14.7655 7.69744 14.7655 9.95887V11.5995C14.7655 12.0529 15.1324 12.4198 15.5858 12.4198H18.867C19.3204 12.4198 19.6873 12.0529 19.6873 11.5995V9.95887C19.6873 4.98341 15.6394 0.935547 10.664 0.935547C5.68848 0.935547 1.64062 4.98341 1.64062 9.95887V14.3209C0.687859 14.6606 0 15.5626 0 16.6306V26.4743C0 27.8313 1.10392 28.9352 2.46088 28.9352H18.867C20.224 28.9352 21.3279 27.8312 21.3279 26.4743V16.6306C21.3279 15.2736 20.224 14.1698 18.867 14.1698ZM11.4843 22.2217V24.8337C11.4843 25.2871 11.1174 25.654 10.664 25.654C10.2105 25.654 9.84364 25.2871 9.84364 24.8337V22.2217C8.89087 21.8819 8.20302 20.9799 8.20302 19.9119C8.20302 18.5549 9.30694 17.451 10.664 17.451C12.021 17.451 13.1248 18.5549 13.1248 19.9119C13.1248 20.9799 12.437 21.8819 11.4843 22.2217Z" fill="white" />
            <path d="M27.1794 12.4736H23.8982C23.4448 12.4736 23.0779 12.8405 23.0779 13.2939C23.0779 13.7474 23.4448 14.1143 23.8982 14.1143H27.1794C27.6328 14.1143 27.9997 13.7474 27.9997 13.2939C27.9997 12.8405 27.6328 12.4736 27.1794 12.4736Z" fill="white" />
          </g>
          <defs>
            <clipPath id="clip0">
              <rect width="28" height="28" fill="white" transform="translate(0 0.93457)" />
            </clipPath>
          </defs>
        </svg>
